<mxfile host="app.diagrams.net" agent="Mozilla/5.0 (Windows NT 10.0; Win64; x64) AppleWebKit/537.36 (KHTML, like Gecko) Chrome/138.0.0.0 Safari/537.36" version="28.0.7">
  <diagram name="PÃ¡gina-1" id="Dvw4ss-QtFs_YevuT05K">
    <mxGraphModel dx="2852" dy="1514" grid="1" gridSize="10" guides="1" tooltips="1" connect="1" arrows="1" fold="1" page="1" pageScale="1" pageWidth="827" pageHeight="1169" math="0" shadow="0">
      <root>
        <mxCell id="0" />
        <mxCell id="1" parent="0" />
        <mxCell id="tUJTgO7Ua7eLVCsTyBn_-31" value="" style="rounded=0;whiteSpace=wrap;html=1;fillColor=none;" vertex="1" parent="1">
          <mxGeometry x="320" y="520" width="400" height="200" as="geometry" />
        </mxCell>
        <mxCell id="tUJTgO7Ua7eLVCsTyBn_-32" value="" style="rounded=0;whiteSpace=wrap;html=1;fillColor=light-dark(#FFFFFF,#FFFFFF);" vertex="1" parent="1">
          <mxGeometry x="440" y="700" width="40" height="20" as="geometry" />
        </mxCell>
        <mxCell id="tUJTgO7Ua7eLVCsTyBn_-33" value="" style="rounded=0;whiteSpace=wrap;html=1;fillColor=light-dark(#FFFFFF,#FFFFFF);" vertex="1" parent="1">
          <mxGeometry x="494" y="700" width="40" height="20" as="geometry" />
        </mxCell>
        <mxCell id="tUJTgO7Ua7eLVCsTyBn_-34" value="" style="rounded=0;whiteSpace=wrap;html=1;fillColor=light-dark(#FFFFFF,#FFFFFF);" vertex="1" parent="1">
          <mxGeometry x="560" y="700" width="40" height="20" as="geometry" />
        </mxCell>
        <mxCell id="tUJTgO7Ua7eLVCsTyBn_-35" value="" style="rounded=0;whiteSpace=wrap;html=1;fillColor=light-dark(#FFFFFF,#FFFFFF);" vertex="1" parent="1">
          <mxGeometry x="620" y="700" width="40" height="20" as="geometry" />
        </mxCell>
        <mxCell id="tUJTgO7Ua7eLVCsTyBn_-36" value="" style="rounded=0;whiteSpace=wrap;html=1;fillColor=light-dark(#FFFFFF,#FFFFFF);rotation=-90;" vertex="1" parent="1">
          <mxGeometry x="690" y="562.5" width="40" height="20" as="geometry" />
        </mxCell>
        <mxCell id="tUJTgO7Ua7eLVCsTyBn_-37" value="" style="rounded=0;whiteSpace=wrap;html=1;fillColor=light-dark(#FFFFFF,#FFFFFF);" vertex="1" parent="1">
          <mxGeometry x="380" y="520" width="40" height="20" as="geometry" />
        </mxCell>
        <mxCell id="tUJTgO7Ua7eLVCsTyBn_-38" value="" style="rounded=0;whiteSpace=wrap;html=1;fillColor=light-dark(#FFFFFF,#FFFFFF);" vertex="1" parent="1">
          <mxGeometry x="440" y="520" width="40" height="20" as="geometry" />
        </mxCell>
        <mxCell id="tUJTgO7Ua7eLVCsTyBn_-39" value="" style="rounded=0;whiteSpace=wrap;html=1;fillColor=light-dark(#FFFFFF,#FFFFFF);" vertex="1" parent="1">
          <mxGeometry x="500" y="520" width="40" height="20" as="geometry" />
        </mxCell>
        <mxCell id="tUJTgO7Ua7eLVCsTyBn_-40" value="" style="rounded=0;whiteSpace=wrap;html=1;fillColor=light-dark(#FFFFFF,#FFFFFF);" vertex="1" parent="1">
          <mxGeometry x="560" y="520" width="40" height="20" as="geometry" />
        </mxCell>
        <mxCell id="tUJTgO7Ua7eLVCsTyBn_-41" value="" style="rounded=0;whiteSpace=wrap;html=1;fillColor=light-dark(#FFFFFF,#FFFFFF);" vertex="1" parent="1">
          <mxGeometry x="654" y="520" width="40" height="20" as="geometry" />
        </mxCell>
        <mxCell id="tUJTgO7Ua7eLVCsTyBn_-42" value="" style="rounded=1;whiteSpace=wrap;html=1;rotation=90;fillColor=#0050ef;fontColor=#ffffff;strokeColor=#001DBC;" vertex="1" parent="1">
          <mxGeometry x="700" y="610" width="30" height="20" as="geometry" />
        </mxCell>
        <mxCell id="tUJTgO7Ua7eLVCsTyBn_-43" style="edgeStyle=orthogonalEdgeStyle;rounded=0;orthogonalLoop=1;jettySize=auto;html=1;exitX=0.5;exitY=1;exitDx=0;exitDy=0;" edge="1" parent="1" source="tUJTgO7Ua7eLVCsTyBn_-41" target="tUJTgO7Ua7eLVCsTyBn_-41">
          <mxGeometry relative="1" as="geometry" />
        </mxCell>
        <mxCell id="tUJTgO7Ua7eLVCsTyBn_-45" value="" style="rounded=0;whiteSpace=wrap;html=1;fillColor=#6a00ff;fontColor=#ffffff;strokeColor=#3700CC;rotation=-90;" vertex="1" parent="1">
          <mxGeometry x="380" y="567.5" width="100" height="4" as="geometry" />
        </mxCell>
        <mxCell id="tUJTgO7Ua7eLVCsTyBn_-50" value="" style="ellipse;whiteSpace=wrap;html=1;aspect=fixed;fillColor=#0050ef;fontColor=#ffffff;strokeColor=#001DBC;" vertex="1" parent="1">
          <mxGeometry x="140" y="522.5" width="20" height="20" as="geometry" />
        </mxCell>
        <mxCell id="tUJTgO7Ua7eLVCsTyBn_-51" value="&lt;font style=&quot;font-size: 17px;&quot;&gt;Switch&lt;/font&gt;" style="text;strokeColor=none;fillColor=none;html=1;fontSize=24;fontStyle=1;verticalAlign=middle;align=center;" vertex="1" parent="1">
          <mxGeometry x="170" y="520" width="60" height="25" as="geometry" />
        </mxCell>
        <mxCell id="tUJTgO7Ua7eLVCsTyBn_-52" value="" style="ellipse;whiteSpace=wrap;html=1;aspect=fixed;fillColor=light-dark(#0050ef, #ffffff);fontColor=#ffffff;strokeColor=#001DBC;" vertex="1" parent="1">
          <mxGeometry x="140" y="560" width="20" height="20" as="geometry" />
        </mxCell>
        <mxCell id="tUJTgO7Ua7eLVCsTyBn_-53" value="&lt;span style=&quot;font-size: 17px;&quot;&gt;Computadoras&lt;/span&gt;" style="text;strokeColor=none;fillColor=none;html=1;fontSize=24;fontStyle=1;verticalAlign=middle;align=center;" vertex="1" parent="1">
          <mxGeometry x="200" y="557.5" width="60" height="25" as="geometry" />
        </mxCell>
        <mxCell id="tUJTgO7Ua7eLVCsTyBn_-54" value="" style="ellipse;whiteSpace=wrap;html=1;aspect=fixed;fillColor=#6a00ff;fontColor=#ffffff;strokeColor=#3700CC;" vertex="1" parent="1">
          <mxGeometry x="140" y="600.25" width="20" height="20" as="geometry" />
        </mxCell>
        <mxCell id="tUJTgO7Ua7eLVCsTyBn_-55" value="&lt;span style=&quot;font-size: 17px;&quot;&gt;Ductos&lt;/span&gt;" style="text;strokeColor=none;fillColor=none;html=1;fontSize=24;fontStyle=1;verticalAlign=middle;align=center;" vertex="1" parent="1">
          <mxGeometry x="170" y="597.75" width="60" height="25" as="geometry" />
        </mxCell>
        <mxCell id="tUJTgO7Ua7eLVCsTyBn_-56" value="" style="ellipse;whiteSpace=wrap;html=1;aspect=fixed;fillColor=#60a917;fontColor=#ffffff;strokeColor=#2D7600;" vertex="1" parent="1">
          <mxGeometry x="140" y="642.5" width="20" height="20" as="geometry" />
        </mxCell>
        <mxCell id="tUJTgO7Ua7eLVCsTyBn_-57" value="&lt;span style=&quot;font-size: 17px;&quot;&gt;Cable&lt;/span&gt;" style="text;strokeColor=none;fillColor=none;html=1;fontSize=24;fontStyle=1;verticalAlign=middle;align=center;" vertex="1" parent="1">
          <mxGeometry x="170" y="640" width="50" height="25" as="geometry" />
        </mxCell>
        <mxCell id="tUJTgO7Ua7eLVCsTyBn_-58" value="" style="endArrow=none;html=1;rounded=0;entryX=0;entryY=0.5;entryDx=0;entryDy=0;exitX=1;exitY=0.25;exitDx=0;exitDy=0;strokeColor=light-dark(#000000,#1DFF24);" edge="1" parent="1" target="tUJTgO7Ua7eLVCsTyBn_-44">
          <mxGeometry width="50" height="50" relative="1" as="geometry">
            <mxPoint x="690" y="618.75" as="sourcePoint" />
            <mxPoint x="370" y="619.75" as="targetPoint" />
          </mxGeometry>
        </mxCell>
        <mxCell id="tUJTgO7Ua7eLVCsTyBn_-44" value="" style="rounded=0;whiteSpace=wrap;html=1;fillColor=#6a00ff;fontColor=#ffffff;strokeColor=#3700CC;" vertex="1" parent="1">
          <mxGeometry x="420" y="616.25" width="290" height="4" as="geometry" />
        </mxCell>
        <mxCell id="tUJTgO7Ua7eLVCsTyBn_-59" value="" style="rounded=0;whiteSpace=wrap;html=1;fillColor=#6a00ff;fontColor=#ffffff;strokeColor=#3700CC;rotation=-90;" vertex="1" parent="1">
          <mxGeometry x="500" y="568" width="100" height="4" as="geometry" />
        </mxCell>
        <mxCell id="tUJTgO7Ua7eLVCsTyBn_-63" value="" style="endArrow=none;html=1;rounded=0;fillColor=#60a917;strokeColor=#2D7600;strokeWidth=2;entryX=0.417;entryY=1.012;entryDx=0;entryDy=0;entryPerimeter=0;" edge="1" parent="1" target="tUJTgO7Ua7eLVCsTyBn_-42">
          <mxGeometry width="50" height="50" relative="1" as="geometry">
            <mxPoint x="424" y="617.95" as="sourcePoint" />
            <mxPoint x="694" y="617.95" as="targetPoint" />
          </mxGeometry>
        </mxCell>
        <mxCell id="tUJTgO7Ua7eLVCsTyBn_-64" value="" style="endArrow=none;html=1;rounded=0;fillColor=#60a917;strokeColor=#2D7600;strokeWidth=2;exitX=0.017;exitY=0.636;exitDx=0;exitDy=0;exitPerimeter=0;" edge="1" parent="1" source="tUJTgO7Ua7eLVCsTyBn_-67">
          <mxGeometry width="50" height="50" relative="1" as="geometry">
            <mxPoint x="490.844" y="720" as="sourcePoint" />
            <mxPoint x="490" y="620" as="targetPoint" />
          </mxGeometry>
        </mxCell>
        <mxCell id="tUJTgO7Ua7eLVCsTyBn_-65" value="" style="endArrow=none;html=1;rounded=0;fillColor=#60a917;strokeColor=#2D7600;strokeWidth=2;" edge="1" parent="1">
          <mxGeometry width="50" height="50" relative="1" as="geometry">
            <mxPoint x="550" y="620" as="sourcePoint" />
            <mxPoint x="549.35" y="522.5" as="targetPoint" />
          </mxGeometry>
        </mxCell>
        <mxCell id="tUJTgO7Ua7eLVCsTyBn_-68" value="" style="endArrow=none;html=1;rounded=0;fillColor=#60a917;strokeColor=#2D7600;strokeWidth=2;exitX=0.017;exitY=0.636;exitDx=0;exitDy=0;exitPerimeter=0;" edge="1" parent="1" target="tUJTgO7Ua7eLVCsTyBn_-67">
          <mxGeometry width="50" height="50" relative="1" as="geometry">
            <mxPoint x="490.844" y="720" as="sourcePoint" />
            <mxPoint x="490" y="620" as="targetPoint" />
          </mxGeometry>
        </mxCell>
        <mxCell id="tUJTgO7Ua7eLVCsTyBn_-67" value="" style="rounded=0;whiteSpace=wrap;html=1;fillColor=#6a00ff;fontColor=#ffffff;strokeColor=#3700CC;rotation=-90;" vertex="1" parent="1">
          <mxGeometry x="440" y="670" width="100" height="4" as="geometry" />
        </mxCell>
        <mxCell id="tUJTgO7Ua7eLVCsTyBn_-69" value="" style="rounded=0;whiteSpace=wrap;html=1;fillColor=#6a00ff;fontColor=#ffffff;strokeColor=#3700CC;rotation=-90;" vertex="1" parent="1">
          <mxGeometry x="560" y="666" width="100" height="4" as="geometry" />
        </mxCell>
        <mxCell id="tUJTgO7Ua7eLVCsTyBn_-70" value="" style="endArrow=none;html=1;rounded=0;fillColor=#60a917;strokeColor=#2D7600;strokeWidth=2;" edge="1" parent="1" source="tUJTgO7Ua7eLVCsTyBn_-80">
          <mxGeometry width="50" height="50" relative="1" as="geometry">
            <mxPoint x="430.31999999999994" y="617.5" as="sourcePoint" />
            <mxPoint x="429.66999999999996" y="520" as="targetPoint" />
          </mxGeometry>
        </mxCell>
        <mxCell id="tUJTgO7Ua7eLVCsTyBn_-72" value="" style="endArrow=none;html=1;rounded=0;fillColor=#60a917;strokeColor=#2D7600;strokeWidth=2;" edge="1" parent="1" source="tUJTgO7Ua7eLVCsTyBn_-77">
          <mxGeometry width="50" height="50" relative="1" as="geometry">
            <mxPoint x="610.3199999999999" y="720.75" as="sourcePoint" />
            <mxPoint x="609.6700000000001" y="623.25" as="targetPoint" />
          </mxGeometry>
        </mxCell>
        <mxCell id="tUJTgO7Ua7eLVCsTyBn_-76" value="" style="rounded=0;whiteSpace=wrap;html=1;fillColor=#fa6800;fontColor=#000000;strokeColor=#C73500;" vertex="1" parent="1">
          <mxGeometry x="484" y="710" width="10" height="10" as="geometry" />
        </mxCell>
        <mxCell id="tUJTgO7Ua7eLVCsTyBn_-78" value="" style="endArrow=none;html=1;rounded=0;fillColor=#60a917;strokeColor=#2D7600;strokeWidth=2;" edge="1" parent="1" target="tUJTgO7Ua7eLVCsTyBn_-77">
          <mxGeometry width="50" height="50" relative="1" as="geometry">
            <mxPoint x="610.3199999999999" y="720.75" as="sourcePoint" />
            <mxPoint x="609.6700000000001" y="623.25" as="targetPoint" />
          </mxGeometry>
        </mxCell>
        <mxCell id="tUJTgO7Ua7eLVCsTyBn_-77" value="" style="rounded=0;whiteSpace=wrap;html=1;fillColor=#fa6800;fontColor=#000000;strokeColor=#C73500;" vertex="1" parent="1">
          <mxGeometry x="605" y="710" width="10" height="10" as="geometry" />
        </mxCell>
        <mxCell id="tUJTgO7Ua7eLVCsTyBn_-79" value="" style="endArrow=none;html=1;rounded=0;fillColor=#60a917;strokeColor=#2D7600;strokeWidth=2;exitX=0.667;exitY=-0.2;exitDx=0;exitDy=0;exitPerimeter=0;" edge="1" parent="1" source="tUJTgO7Ua7eLVCsTyBn_-76">
          <mxGeometry width="50" height="50" relative="1" as="geometry">
            <mxPoint x="490.15999999999997" y="707" as="sourcePoint" />
            <mxPoint x="489.83" y="620.25" as="targetPoint" />
          </mxGeometry>
        </mxCell>
        <mxCell id="tUJTgO7Ua7eLVCsTyBn_-81" value="" style="endArrow=none;html=1;rounded=0;fillColor=#60a917;strokeColor=#2D7600;strokeWidth=2;" edge="1" parent="1" target="tUJTgO7Ua7eLVCsTyBn_-80">
          <mxGeometry width="50" height="50" relative="1" as="geometry">
            <mxPoint x="430.31999999999994" y="617.5" as="sourcePoint" />
            <mxPoint x="429.66999999999996" y="520" as="targetPoint" />
          </mxGeometry>
        </mxCell>
        <mxCell id="tUJTgO7Ua7eLVCsTyBn_-80" value="" style="rounded=0;whiteSpace=wrap;html=1;fillColor=#fa6800;fontColor=#000000;strokeColor=#C73500;" vertex="1" parent="1">
          <mxGeometry x="425" y="520" width="10" height="10" as="geometry" />
        </mxCell>
        <mxCell id="tUJTgO7Ua7eLVCsTyBn_-82" value="" style="rounded=0;whiteSpace=wrap;html=1;fillColor=#fa6800;fontColor=#000000;strokeColor=#C73500;" vertex="1" parent="1">
          <mxGeometry x="545" y="520" width="10" height="10" as="geometry" />
        </mxCell>
        <mxCell id="tUJTgO7Ua7eLVCsTyBn_-83" value="" style="ellipse;whiteSpace=wrap;html=1;aspect=fixed;fillColor=#fa6800;fontColor=#000000;strokeColor=#C73500;" vertex="1" parent="1">
          <mxGeometry x="140" y="677.5" width="20" height="20" as="geometry" />
        </mxCell>
        <mxCell id="tUJTgO7Ua7eLVCsTyBn_-84" value="&lt;span style=&quot;font-size: 17px;&quot;&gt;Par de roseta Rj45&lt;/span&gt;" style="text;strokeColor=none;fillColor=none;html=1;fontSize=24;fontStyle=1;verticalAlign=middle;align=center;" vertex="1" parent="1">
          <mxGeometry x="210" y="675" width="60" height="25" as="geometry" />
        </mxCell>
        <mxCell id="tUJTgO7Ua7eLVCsTyBn_-85" value="" style="rounded=0;whiteSpace=wrap;html=1;fillColor=#fa6800;fontColor=#000000;strokeColor=#C73500;" vertex="1" parent="1">
          <mxGeometry x="710" y="525" width="10" height="10" as="geometry" />
        </mxCell>
        <mxCell id="tUJTgO7Ua7eLVCsTyBn_-86" value="" style="rounded=0;whiteSpace=wrap;html=1;fillColor=#6a00ff;fontColor=#ffffff;strokeColor=#3700CC;rotation=-90;" vertex="1" parent="1">
          <mxGeometry x="673.62" y="563.88" width="82.75" height="4" as="geometry" />
        </mxCell>
        <mxCell id="tUJTgO7Ua7eLVCsTyBn_-87" value="" style="endArrow=none;html=1;rounded=0;fillColor=#60a917;strokeColor=#2D7600;strokeWidth=2;exitX=1;exitY=0;exitDx=0;exitDy=0;" edge="1" parent="1" source="tUJTgO7Ua7eLVCsTyBn_-86" target="tUJTgO7Ua7eLVCsTyBn_-42">
          <mxGeometry width="50" height="50" relative="1" as="geometry">
            <mxPoint x="710" y="529.31" as="sourcePoint" />
            <mxPoint x="991" y="529.36" as="targetPoint" />
          </mxGeometry>
        </mxCell>
        <mxCell id="tUJTgO7Ua7eLVCsTyBn_-89" value="Puerta" style="whiteSpace=wrap;html=1;aspect=fixed;fillColor=#fff2cc;strokeColor=#d6b656;gradientColor=#ffd966;" vertex="1" parent="1">
          <mxGeometry x="350" y="690" width="40" height="40" as="geometry" />
        </mxCell>
      </root>
    </mxGraphModel>
  </diagram>
</mxfile>
